<svg width="1014" height="314" viewBox="0 0 1014 314" fill="none" xmlns="http://www.w3.org/2000/svg">
<path d="M4.90909 8.20455C2.54545 8.17614 1.02273 9.95455 1.02273 12.0909C1.02273 14.3409 2.68182 15.9545 4.68182 15.9545C5.88636 15.9545 6.90909 15.3636 7.54545 14.4091H7.63636C7.63636 17.2727 6.52273 18.9091 4.72727 18.9091C3.5 18.9091 2.75 18.1364 2.5 17.0682H1.11364C1.38636 18.9091 2.77273 20.1591 4.72727 20.1591C7.34091 20.1591 8.95455 17.8409 8.95455 13.7045C8.95455 9.43182 6.81818 8.22727 4.90909 8.20455ZM4.90909 9.45455C6.36364 9.45455 7.43182 10.7045 7.43182 12.0682C7.43182 13.4545 6.29545 14.7045 4.86364 14.7045C3.43182 14.7045 2.38636 13.5455 2.38636 12.0909C2.38636 10.6364 3.47727 9.45455 4.90909 9.45455ZM14.8935 8.20455C12.5298 8.17614 11.0071 9.95455 11.0071 12.0909C11.0071 14.3409 12.6662 15.9545 14.6662 15.9545C15.8707 15.9545 16.8935 15.3636 17.5298 14.4091H17.6207C17.6207 17.2727 16.5071 18.9091 14.7116 18.9091C13.4844 18.9091 12.7344 18.1364 12.4844 17.0682H11.098C11.3707 18.9091 12.7571 20.1591 14.7116 20.1591C17.3253 20.1591 18.9389 17.8409 18.9389 13.7045C18.9389 9.43182 16.8026 8.22727 14.8935 8.20455ZM14.8935 9.45455C16.348 9.45455 17.4162 10.7045 17.4162 12.0682C17.4162 13.4545 16.2798 14.7045 14.848 14.7045C13.4162 14.7045 12.3707 13.5455 12.3707 12.0909C12.3707 10.6364 13.4616 9.45455 14.8935 9.45455Z" fill="#8A92A6"/>
<path d="M4.90909 60.2045C2.54545 60.1761 1.02273 61.9545 1.02273 64.0909C1.02273 66.3409 2.68182 67.9545 4.68182 67.9545C5.88636 67.9545 6.90909 67.3636 7.54545 66.4091H7.63636C7.63636 69.2727 6.52273 70.9091 4.72727 70.9091C3.5 70.9091 2.75 70.1364 2.5 69.0682H1.11364C1.38636 70.9091 2.77273 72.1591 4.72727 72.1591C7.34091 72.1591 8.95455 69.8409 8.95455 65.7045C8.95455 61.4318 6.81818 60.2273 4.90909 60.2045ZM4.90909 61.4545C6.36364 61.4545 7.43182 62.7045 7.43182 64.0682C7.43182 65.4545 6.29545 66.7045 4.86364 66.7045C3.43182 66.7045 2.38636 65.5455 2.38636 64.0909C2.38636 62.6364 3.47727 61.4545 4.90909 61.4545ZM14.9844 72.1591C17.5526 72.1591 19.0298 69.983 19.0298 66.1818C19.0298 62.4091 17.5298 60.2045 14.9844 60.2045C12.4389 60.2045 10.9389 62.4091 10.9389 66.1818C10.9389 69.983 12.4162 72.1591 14.9844 72.1591ZM14.9844 70.9091C13.2912 70.9091 12.3026 69.2102 12.3026 66.1818C12.3026 63.1591 13.3026 61.4318 14.9844 61.4318C16.6662 61.4318 17.6662 63.1591 17.6662 66.1818C17.6662 69.2102 16.6776 70.9091 14.9844 70.9091Z" fill="#8A92A6"/>
<path d="M4.93182 124.159C7.25568 124.159 8.875 122.801 8.88636 120.909C8.875 119.438 7.89205 118.188 6.63636 117.955V117.886C7.72727 117.602 8.44318 116.534 8.45455 115.295C8.44318 113.523 6.95455 112.205 4.93182 112.205C2.88636 112.205 1.39773 113.523 1.40909 115.295C1.39773 116.534 2.11364 117.602 3.22727 117.886V117.955C1.94886 118.188 0.965909 119.438 0.977273 120.909C0.965909 122.801 2.58523 124.159 4.93182 124.159ZM4.93182 122.909C3.33523 122.909 2.35227 122.091 2.36364 120.841C2.35227 119.528 3.4375 118.591 4.93182 118.591C6.40341 118.591 7.48864 119.528 7.5 120.841C7.48864 122.091 6.50568 122.909 4.93182 122.909ZM4.93182 117.386C3.65909 117.386 2.76136 116.591 2.77273 115.386C2.76136 114.205 3.625 113.432 4.93182 113.432C6.21591 113.432 7.07955 114.205 7.09091 115.386C7.07955 116.591 6.18182 117.386 4.93182 117.386ZM15.1548 112.364H13.7457L10.8366 114.295V115.727L13.6776 113.841H13.7457V124H15.1548V112.364Z" fill="#8A92A6"/>
<path d="M1.56818 176H3.04545L8.22727 165.682V164.364H0.772727V165.614H6.77273V165.705L1.56818 176ZM10.3452 176H17.6861V174.75H12.277V174.659L14.8906 171.864C16.8906 169.722 17.4815 168.722 17.4815 167.432C17.4815 165.636 16.027 164.205 13.9815 164.205C11.9418 164.205 10.3906 165.591 10.3906 167.636H11.7315C11.7315 166.312 12.5895 165.432 13.9361 165.432C15.1974 165.432 16.1634 166.205 16.1634 167.432C16.1634 168.506 15.5327 169.301 14.1861 170.773L10.3452 174.977V176Z" fill="#8A92A6"/>
<path d="M5.06818 228.159C7.42045 228.188 8.95455 226.415 8.95455 224.25C8.95455 222 7.28977 220.386 5.29545 220.386C4.09659 220.386 3.06818 220.972 2.43182 221.932H2.34091C2.34659 219.097 3.44886 217.455 5.25 217.455C6.47727 217.455 7.21591 218.227 7.47727 219.273H8.86364C8.57955 217.466 7.20455 216.205 5.25 216.205C2.63068 216.205 1.02273 218.523 1.02273 222.636C1.02273 226.938 3.15909 228.136 5.06818 228.159ZM5.06818 226.909C3.60795 226.909 2.53977 225.665 2.54545 224.273C2.55114 222.881 3.67045 221.636 5.11364 221.636C6.53977 221.636 7.59091 222.807 7.59091 224.25C7.59091 225.727 6.49432 226.909 5.06818 226.909ZM15.1207 228.159C17.3764 228.159 19.0526 226.744 19.0526 224.841C19.0526 223.364 18.1776 222.29 16.7116 222.045V221.955C17.8878 221.597 18.6207 220.631 18.6207 219.318C18.6207 217.67 17.3196 216.205 15.1662 216.205C13.1548 216.205 11.4844 217.443 11.4162 219.273H12.7798C12.831 218.114 13.9332 217.432 15.1435 217.432C16.4276 217.432 17.2571 218.21 17.2571 219.386C17.2571 220.614 16.2969 221.409 14.9162 221.409H13.9844V222.659H14.9162C16.6832 222.659 17.6662 223.557 17.6662 224.841C17.6662 226.074 16.5923 226.909 15.098 226.909C13.7514 226.909 12.6832 226.216 12.598 225.091H11.1662C11.2514 226.92 12.8651 228.159 15.1207 228.159Z" fill="#8A92A6"/>
<path d="M4.84091 280.159C7.05682 280.159 8.68182 278.523 8.68182 276.295C8.68182 274.04 7.11364 272.386 4.97727 272.386C4.19318 272.386 3.43182 272.665 2.95455 273.045H2.88636L3.29545 269.614H8.15909V268.364H2.11364L1.40909 274.091L2.72727 274.25C3.21023 273.903 4.03409 273.653 4.75 273.659C6.23295 273.67 7.31818 274.795 7.31818 276.318C7.31818 277.812 6.27273 278.909 4.84091 278.909C3.64773 278.909 2.69886 278.142 2.59091 277.091H1.22727C1.3125 278.864 2.84091 280.159 4.84091 280.159ZM10.6662 277.614H16.1435V280H17.4844V277.614H19.0753V276.364H17.4844V268.364H15.7798L10.6662 276.455V277.614ZM16.1435 276.364H12.1889V276.273L16.0526 270.159H16.1435V276.364Z" fill="#8A92A6"/>
<line x1="47" y1="279.5" x2="996" y2="279.5" stroke="#E9ECEF"/>
<line x1="47.5" y1="286" x2="47.5" y2="279" stroke="#8A92A6"/>
<line x1="214.5" y1="286" x2="214.5" y2="279" stroke="#8A92A6"/>
<line x1="373.5" y1="286" x2="373.5" y2="279" stroke="#8A92A6"/>
<line x1="528.5" y1="286" x2="528.5" y2="279" stroke="#8A92A6"/>
<line x1="680.5" y1="286" x2="680.5" y2="279" stroke="#8A92A6"/>
<line x1="828.5" y1="286" x2="828.5" y2="279" stroke="#8A92A6"/>
<line x1="995.5" y1="286" x2="995.5" y2="279" stroke="#8A92A6"/>
<path d="M34.8636 294.364V302.682C34.8636 304.131 34.1705 304.909 32.9545 304.909C31.8466 304.909 31.0455 304.261 31.0455 303.273H29.6591C29.6591 305.062 31.0455 306.159 32.9545 306.159C34.9773 306.159 36.2727 304.915 36.2727 302.682V294.364H34.8636ZM41.483 306.205C43.0057 306.205 43.8011 305.386 44.0739 304.818H44.142V306H45.483V300.25C45.483 297.477 43.3693 297.159 42.2557 297.159C40.9375 297.159 39.4375 297.614 38.7557 299.205L40.0284 299.659C40.3239 299.023 41.0227 298.341 42.3011 298.341C43.5341 298.341 44.142 298.994 44.142 300.114V300.159C44.142 300.807 43.483 300.75 41.892 300.955C40.2727 301.165 38.5057 301.523 38.5057 303.523C38.5057 305.227 39.8239 306.205 41.483 306.205ZM41.6875 305C40.6193 305 39.8466 304.523 39.8466 303.591C39.8466 302.568 40.7784 302.25 41.8239 302.114C42.392 302.045 43.9148 301.886 44.142 301.614V302.841C44.142 303.932 43.2784 305 41.6875 305ZM49.2713 300.75C49.2713 299.227 50.2145 298.364 51.4986 298.364C52.7429 298.364 53.4986 299.176 53.4986 300.545V306H54.8395V300.455C54.8395 298.227 53.652 297.159 51.8849 297.159C50.5668 297.159 49.7486 297.75 49.3395 298.636H49.2259V297.273H47.9304V306H49.2713V300.75Z" fill="#8A92A6"/>
<path d="M190.409 306H191.818V300.795H196.864V299.545H191.818V295.614H197.386V294.364H190.409V306ZM202.636 306.182C204.409 306.182 205.705 305.295 206.114 303.977L204.818 303.614C204.477 304.523 203.688 304.977 202.636 304.977C201.062 304.977 199.977 303.96 199.915 302.091H206.25V301.523C206.25 298.273 204.318 297.159 202.5 297.159C200.136 297.159 198.568 299.023 198.568 301.705C198.568 304.386 200.114 306.182 202.636 306.182ZM199.915 300.932C200.006 299.574 200.966 298.364 202.5 298.364C203.955 298.364 204.886 299.455 204.886 300.932H199.915ZM208.472 306H209.767V304.659H209.926C210.222 305.136 210.79 306.182 212.472 306.182C214.653 306.182 216.176 304.432 216.176 301.659C216.176 298.909 214.653 297.159 212.449 297.159C210.744 297.159 210.222 298.205 209.926 298.659H209.812V294.364H208.472V306ZM209.79 301.636C209.79 299.682 210.653 298.364 212.29 298.364C213.994 298.364 214.835 299.795 214.835 301.636C214.835 303.5 213.972 304.977 212.29 304.977C210.676 304.977 209.79 303.614 209.79 301.636Z" fill="#8A92A6"/>
<path d="M350.409 294.364V306H351.727V297.159H351.841L355.477 306H356.75L360.386 297.159H360.5V306H361.818V294.364H360.136L356.182 304.023H356.045L352.091 294.364H350.409ZM367.03 306.205C368.553 306.205 369.348 305.386 369.621 304.818H369.689V306H371.03V300.25C371.03 297.477 368.916 297.159 367.803 297.159C366.484 297.159 364.984 297.614 364.303 299.205L365.575 299.659C365.871 299.023 366.57 298.341 367.848 298.341C369.081 298.341 369.689 298.994 369.689 300.114V300.159C369.689 300.807 369.03 300.75 367.439 300.955C365.82 301.165 364.053 301.523 364.053 303.523C364.053 305.227 365.371 306.205 367.03 306.205ZM367.234 305C366.166 305 365.393 304.523 365.393 303.591C365.393 302.568 366.325 302.25 367.371 302.114C367.939 302.045 369.462 301.886 369.689 301.614V302.841C369.689 303.932 368.825 305 367.234 305ZM373.477 306H374.818V300.477C374.818 299.295 375.75 298.432 377.023 298.432C377.381 298.432 377.75 298.5 377.841 298.523V297.159C377.688 297.148 377.335 297.136 377.136 297.136C376.091 297.136 375.182 297.727 374.864 298.591H374.773V297.273H373.477V306Z" fill="#8A92A6"/>
<path d="M512.886 306L514.057 302.705H518.761L519.932 306H521.409L517.136 294.364H515.682L511.409 306H512.886ZM514.5 301.455L516.364 296.205H516.455L518.318 301.455H514.5ZM523.04 309.273H524.381V304.659H524.494C524.79 305.136 525.358 306.182 527.04 306.182C529.222 306.182 530.744 304.432 530.744 301.659C530.744 298.909 529.222 297.159 527.017 297.159C525.312 297.159 524.79 298.205 524.494 298.659H524.335V297.273H523.04V309.273ZM524.358 301.636C524.358 299.682 525.222 298.364 526.858 298.364C528.562 298.364 529.403 299.795 529.403 301.636C529.403 303.5 528.54 304.977 526.858 304.977C525.244 304.977 524.358 303.614 524.358 301.636ZM532.79 306H534.131V300.477C534.131 299.295 535.062 298.432 536.335 298.432C536.693 298.432 537.062 298.5 537.153 298.523V297.159C537 297.148 536.648 297.136 536.449 297.136C535.403 297.136 534.494 297.727 534.176 298.591H534.085V297.273H532.79V306Z" fill="#8A92A6"/>
<path d="M675.864 294.364V302.682C675.864 304.131 675.17 304.909 673.955 304.909C672.847 304.909 672.045 304.261 672.045 303.273H670.659C670.659 305.062 672.045 306.159 673.955 306.159C675.977 306.159 677.273 304.915 677.273 302.682V294.364H675.864ZM685.415 302.432C685.415 304.068 684.165 304.818 683.165 304.818C682.051 304.818 681.256 304 681.256 302.727V297.273H679.915V302.818C679.915 305.045 681.097 306.114 682.733 306.114C684.051 306.114 684.915 305.409 685.324 304.523H685.415V306H686.756V297.273H685.415V302.432ZM690.553 300.75C690.553 299.227 691.496 298.364 692.78 298.364C694.024 298.364 694.78 299.176 694.78 300.545V306H696.121V300.455C696.121 298.227 694.933 297.159 693.166 297.159C691.848 297.159 691.03 297.75 690.621 298.636H690.507V297.273H689.212V306H690.553V300.75Z" fill="#8A92A6"/>
<path d="M835.864 294.364V302.682C835.864 304.131 835.17 304.909 833.955 304.909C832.847 304.909 832.045 304.261 832.045 303.273H830.659C830.659 305.062 832.045 306.159 833.955 306.159C835.977 306.159 837.273 304.915 837.273 302.682V294.364H835.864ZM845.415 302.432C845.415 304.068 844.165 304.818 843.165 304.818C842.051 304.818 841.256 304 841.256 302.727V297.273H839.915V302.818C839.915 305.045 841.097 306.114 842.733 306.114C844.051 306.114 844.915 305.409 845.324 304.523H845.415V306H846.756V297.273H845.415V302.432ZM850.553 294.364H849.212V306H850.553V294.364Z" fill="#8A92A6"/>
<path d="M985.886 306L987.057 302.705H991.761L992.932 306H994.409L990.136 294.364H988.682L984.409 306H985.886ZM987.5 301.455L989.364 296.205H989.455L991.318 301.455H987.5ZM1001.54 302.432C1001.54 304.068 1000.29 304.818 999.29 304.818C998.176 304.818 997.381 304 997.381 302.727V297.273H996.04V302.818C996.04 305.045 997.222 306.114 998.858 306.114C1000.18 306.114 1001.04 305.409 1001.45 304.523H1001.54V306H1002.88V297.273H1001.54V302.432ZM1008.86 309.455C1010.95 309.455 1012.63 308.5 1012.63 306.25V297.273H1011.34V298.659H1011.2C1010.9 298.205 1010.36 297.159 1008.65 297.159C1006.45 297.159 1004.93 298.909 1004.93 301.591C1004.93 304.318 1006.52 305.864 1008.63 305.864C1010.34 305.864 1010.88 304.864 1011.18 304.386H1011.29V306.159C1011.29 307.614 1010.27 308.273 1008.86 308.273C1007.27 308.273 1006.72 307.438 1006.36 306.955L1005.29 307.705C1005.84 308.619 1006.91 309.455 1008.86 309.455ZM1008.81 304.659C1007.13 304.659 1006.27 303.386 1006.27 301.568C1006.27 299.795 1007.11 298.364 1008.81 298.364C1010.45 298.364 1011.31 299.682 1011.31 301.568C1011.31 303.5 1010.43 304.659 1008.81 304.659Z" fill="#8A92A6"/>
<path d="M314.507 96.2319L256.34 152.822C230.694 177.772 192.06 183.739 160.083 167.688L109.069 142.083C92.4711 133.752 74.607 128.231 56.2033 125.744L47 124.5V263H996V103.5L993.465 103.856C974.097 106.58 955.647 113.847 939.624 125.063L891.617 158.668C859.413 181.211 817.186 183.457 782.771 164.459L721.715 130.753C696 116.557 664.858 116.295 638.908 130.056L568.455 167.418C536.771 184.22 497.915 179.053 471.723 154.556L408.374 95.3079C381.856 70.5064 340.532 70.9132 314.507 96.2319Z" fill="url(#paint0_linear_1820_2470)" fill-opacity="0.2"/>
<path d="M47 22.5L52.7254 23.2737C73.3944 26.0668 93.3625 32.6842 111.609 42.7876L158.089 68.5243C187.39 84.7488 222.867 85.2272 252.595 69.7989L321.787 33.8889C347.675 20.4536 378.434 20.241 404.504 33.3172L480.274 71.3208C506.811 84.6309 538.108 84.4716 564.508 70.8919L639.399 32.3699C664.265 19.5791 693.765 19.5207 718.682 32.2128L790.77 68.933C820.966 84.3138 856.795 83.8582 886.589 67.7146L945.566 35.759C958.095 28.9705 971.679 24.1248 985.883 22.9794C989.444 22.6922 992.962 22.5 996 22.5" stroke="#3A57E8" stroke-width="2"/>
<path d="M47 126.5L56.2033 127.744C74.607 130.231 92.4711 135.752 109.069 144.083L160.083 169.688C192.06 185.739 230.694 179.772 256.34 154.822L314.507 98.2319C340.532 72.9132 381.856 72.5064 408.374 97.3079L471.723 156.556C497.915 181.053 536.771 186.22 568.455 169.418L638.908 132.056C664.858 118.295 696 118.557 721.715 132.753L782.771 166.459C817.186 185.457 859.413 183.211 891.617 160.668L939.624 127.063C955.647 115.847 974.097 108.58 993.465 105.856L996 105.5" stroke="#369BFF" stroke-width="2"/>
<path d="M321.787 33.8889L252.595 69.7989C222.867 85.2272 187.39 84.7487 158.089 68.5243L111.609 42.7876C93.3625 32.6842 73.3944 26.0668 52.7254 23.2737L47 22.5V263.5H996V22.5L989.626 23.1071C973.045 24.6862 956.953 29.5893 942.309 37.5239L886.589 67.7146C856.795 83.8582 820.966 84.3138 790.77 68.933L718.682 32.2128C693.765 19.5207 664.265 19.5791 639.399 32.3699L564.508 70.8919C538.108 84.4716 506.811 84.6309 480.274 71.3208L404.504 33.3172C378.434 20.241 347.675 20.4536 321.787 33.8889Z" fill="url(#paint1_linear_1820_2470)" fill-opacity="0.2"/>
<defs>
<linearGradient id="paint0_linear_1820_2470" x1="521" y1="65" x2="521" y2="213.5" gradientUnits="userSpaceOnUse">
<stop stop-color="#85C5FA"/>
<stop offset="0.385417" stop-color="#85D9FA" stop-opacity="0.586835"/>
<stop offset="0.93284" stop-color="#85F4FA" stop-opacity="0"/>
</linearGradient>
<linearGradient id="paint1_linear_1820_2470" x1="521.5" y1="12" x2="521" y2="107.5" gradientUnits="userSpaceOnUse">
<stop stop-color="#3A57E8"/>
<stop offset="1" stop-color="#3A57E8" stop-opacity="0"/>
</linearGradient>
</defs>
</svg>
