<svg width="86" height="26" viewBox="0 0 86 26" fill="none" xmlns="http://www.w3.org/2000/svg">
<rect y="0.5" width="86" height="25" rx="12.5" fill="#1AA053"/>
<path d="M16.3324 8.04545L19.7486 13.6037V17.5H20.8935V13.6037L24.3097 8.04545H22.9986L20.3764 12.4588H20.2656L17.6435 8.04545H16.3324ZM27.5204 17.6477C29.4409 17.6477 30.7335 16.1889 30.7335 13.9915C30.7335 11.7756 29.4409 10.3168 27.5204 10.3168C25.6 10.3168 24.3074 11.7756 24.3074 13.9915C24.3074 16.1889 25.6 17.6477 27.5204 17.6477ZM27.5204 16.669C26.0616 16.669 25.3968 15.4134 25.3968 13.9915C25.3968 12.5696 26.0616 11.2955 27.5204 11.2955C28.9792 11.2955 29.644 12.5696 29.644 13.9915C29.644 15.4134 28.9792 16.669 27.5204 16.669ZM30.6273 8.04545L34.0435 13.6037V17.5H35.1884V13.6037L38.6046 8.04545H37.2935L34.6713 12.4588H34.5605L31.9384 8.04545H30.6273ZM43.5754 17.5H49.5399V16.4844H45.145V16.4105L47.2686 14.1392C48.8936 12.3988 49.3737 11.5863 49.3737 10.5384C49.3737 9.07954 48.1919 7.91619 46.5299 7.91619C44.8726 7.91619 43.6123 9.04261 43.6123 10.7045H44.7018C44.7018 9.62891 45.3989 8.91335 46.493 8.91335C47.5178 8.91335 48.3026 9.54119 48.3026 10.5384C48.3026 11.4109 47.7902 12.0572 46.6961 13.2528L43.5754 16.669V17.5ZM51.0218 15.5611H55.472V17.5H56.5615V15.5611H57.8541V14.5455H56.5615V8.04545H55.1766L51.0218 14.6193V15.5611ZM55.472 14.5455H52.259V14.4716L55.3982 9.50426H55.472V14.5455ZM64.4038 15.7273C64.4038 16.7614 65.0501 17.6293 66.2504 17.6293C67.4322 17.6293 68.0785 16.7614 68.0785 15.7273V15.2287C68.0785 14.1946 67.4506 13.3267 66.2504 13.3267C65.0685 13.3267 64.4038 14.1946 64.4038 15.2287V15.7273ZM59.695 10.3168C59.695 11.3509 60.3413 12.2188 61.5415 12.2188C62.7234 12.2188 63.3697 11.3509 63.3697 10.3168V9.81818C63.3697 8.78409 62.7418 7.91619 61.5415 7.91619C60.3597 7.91619 59.695 8.78409 59.695 9.81818V10.3168ZM60.0458 17.5H61.0984L67.5984 8.04545H66.5458L60.0458 17.5ZM65.3455 15.2287C65.3455 14.6562 65.604 14.1207 66.2504 14.1207C66.9151 14.1207 67.1367 14.6562 67.1367 15.2287V15.7273C67.1367 16.2997 66.8967 16.8352 66.2504 16.8352C65.5856 16.8352 65.3455 16.2997 65.3455 15.7273V15.2287ZM60.6367 9.81818C60.6367 9.24574 60.8952 8.71023 61.5415 8.71023C62.2063 8.71023 62.4279 9.24574 62.4279 9.81818V10.3168C62.4279 10.8892 62.1879 11.4247 61.5415 11.4247C60.8768 11.4247 60.6367 10.8892 60.6367 10.3168V9.81818Z" fill="white"/>
</svg>
